<svg width="320" height="128" viewBox="0 0 320 128" fill="none" xmlns="http://www.w3.org/2000/svg">
<path d="M118 24L152.641 44V84L118 104L83.359 84V44L118 24Z" fill="#313131"/>
<path d="M123.929 87.784L119.257 73.96H106.585L101.657 87.784H106.457V89H96.6653V87.784H99.6733L115.993 43.816H121.241L137.369 87.784H140.313V89H119.385V87.784H123.929ZM113.177 55.784L107.161 72.552H118.745L113.177 55.784Z" fill="#ECECEC"/>
<path d="M162.059 79.848V59.688H158.539V58.536H162.059V50.28L173.963 47.336V58.536H182.283V59.688H173.963V81.256C173.963 83.2613 174.155 84.7333 174.539 85.672C174.965 86.6107 175.819 87.08 177.099 87.08C178.379 87.08 179.488 86.44 180.427 85.16C181.408 83.88 182.048 82.1307 182.347 79.912L183.435 80.04C183.093 82.984 182.155 85.3307 180.619 87.08C179.083 88.7867 176.544 89.64 173.003 89.64C169.461 89.64 166.752 88.936 164.875 87.528C162.997 86.12 162.059 83.56 162.059 79.848ZM199.406 73.96H201.262V69.032C201.262 64.9787 201.028 62.2693 200.558 60.904C200.132 59.496 199.278 58.792 197.998 58.792C197.23 58.792 196.526 59.0053 195.886 59.432C195.289 59.816 194.99 60.3707 194.99 61.096C194.99 61.7787 195.118 62.4827 195.374 63.208H196.974C197.316 64.104 197.486 65.192 197.486 66.472C197.486 67.7093 196.953 68.7973 195.886 69.736C194.82 70.632 193.476 71.08 191.854 71.08C188.185 71.08 186.35 69.3093 186.35 65.768C186.35 60.52 190.809 57.896 199.726 57.896C204.804 57.896 208.302 58.7707 210.222 60.52C212.185 62.2267 213.166 65.384 213.166 69.992V82.984C213.166 85.2027 213.785 86.312 215.022 86.312C216.473 86.312 217.326 84.1147 217.582 79.72L218.542 79.784C218.372 83.5387 217.668 86.12 216.43 87.528C215.193 88.936 213.166 89.64 210.35 89.64C205.23 89.64 202.286 88.0613 201.518 84.904C200.964 86.5253 200.132 87.72 199.022 88.488C197.913 89.256 196.292 89.64 194.158 89.64C187.844 89.64 184.686 87.0587 184.686 81.896C184.686 78.8667 185.881 76.7973 188.27 75.688C190.702 74.536 194.414 73.96 199.406 73.96ZM196.846 81.832C196.846 84.0507 196.953 85.48 197.166 86.12C197.422 86.76 197.87 87.08 198.51 87.08C199.193 87.08 199.812 86.5467 200.366 85.48C200.964 84.3707 201.262 82.856 201.262 80.936V74.984H200.814C198.169 74.984 196.846 76.9253 196.846 80.808V81.832ZM215.039 59.688V58.536H233.599V59.688H230.143L237.119 80.936L244.543 59.688H240.255V58.536H249.279V59.688H246.079L234.111 94.184C232.703 98.1947 231.124 100.989 229.375 102.568C227.625 104.189 225.492 105 222.975 105C220.457 105 218.473 104.424 217.023 103.272C215.572 102.12 214.847 100.648 214.847 98.856C214.847 97.064 215.316 95.6987 216.255 94.76C217.193 93.8213 218.431 93.352 219.967 93.352C223.508 93.352 225.279 94.824 225.279 97.768C225.279 98.408 225.151 99.176 224.895 100.072H222.655C222.313 101.053 222.271 101.864 222.527 102.504C222.783 103.144 223.359 103.464 224.255 103.464C226.004 103.464 227.561 102.589 228.927 100.84C230.292 99.1333 231.593 96.5093 232.831 92.968L234.239 89H228.607L217.663 59.688H215.039Z" fill="#313131"/>
</svg>
