<svg width="128" height="128" viewBox="0 0 128 128" fill="none" xmlns="http://www.w3.org/2000/svg">
<path fill-rule="evenodd" clip-rule="evenodd" d="M64 64L29.359 44V84L64 104V64Z" fill="#262626"/>
<path fill-rule="evenodd" clip-rule="evenodd" d="M64 64L29.359 44V84L64 104V64Z" fill="black" fill-opacity="0.2"/>
<path fill-rule="evenodd" clip-rule="evenodd" d="M64 64L29.359 44V84L64 104V64Z" fill="#464646" fill-opacity="0.2"/>
<path d="M98.641 44L64 24L29.359 44L64 64L98.641 44Z" fill="#262626"/>
<path d="M98.641 44L64 24L29.359 44L64 64L98.641 44Z" fill="#434343" fill-opacity="0.2"/>
<path d="M98.641 44L64 24L29.359 44L64 64L98.641 44Z" fill="#414141"/>
<path d="M98.641 84V44L64 64V104L98.641 84Z" fill="#262626"/>
<path d="M98.641 84V44L64 64V104L98.641 84Z" fill="#5E5E5E"/>
<path d="M98.641 84V44L64 64V104L98.641 84Z" fill="#464646" fill-opacity="0.2"/>
<path d="M45.9071 90.4115L47.6983 81.4691L40.8394 77.5091L33.8521 83.4515L36.4501 84.9515L36.0701 85.6097L30.7701 82.5497L31.1501 81.8915L32.7782 82.8315L55.3516 64.1331L58.1922 65.7731L53.1817 94.6115L54.7752 95.5315L54.3952 96.1897L43.0676 89.6497L43.4476 88.9915L45.9071 90.4115ZM50.0874 69.731L41.5912 76.927L47.8612 80.547L50.0874 69.731Z" fill="white"/>
<path d="M66.1576 51.9666L55.2457 45.6666L54.1457 47.5718L53.5221 47.2118L54.6221 45.3066L50.1534 42.7266L52.2799 35.3633L58.3421 38.8633L60.9421 34.36L61.5657 34.72L58.9657 39.2233L70.6397 45.9633C71.7251 46.59 72.5818 46.9461 73.2099 47.0316C73.8513 47.094 74.372 46.7787 74.772 46.0859C75.172 45.3931 75.1723 44.5927 74.7728 43.6846C74.3866 42.7534 73.6398 41.8603 72.5322 41.0054L72.9415 40.4565C74.4283 41.5612 75.4052 42.8026 75.872 44.1807C76.3158 45.5454 75.9843 47.1861 74.8777 49.1029C73.771 51.0197 72.5433 52.2662 71.1945 52.8424C69.8457 53.4185 68.1668 53.1266 66.1576 51.9666Z" fill="white"/>
<path d="M71.5555 62.68V61.96H83.1555V62.68H80.9955L85.3555 75.96L89.9955 62.68H87.3155V61.96H92.9555V62.68H90.9555L83.4755 84.24C82.5955 86.7467 81.6088 88.4933 80.5155 89.48C79.4221 90.4933 78.0888 91 76.5155 91C74.9421 91 73.7021 90.64 72.7955 89.92C71.8888 89.2 71.4355 88.28 71.4355 87.16C71.4355 86.04 71.7288 85.1867 72.3155 84.6C72.9021 84.0133 73.6755 83.72 74.6355 83.72C76.8488 83.72 77.9555 84.64 77.9555 86.48C77.9555 86.88 77.8755 87.36 77.7155 87.92H76.3155C76.1021 88.5333 76.0755 89.04 76.2355 89.44C76.3955 89.84 76.7555 90.04 77.3155 90.04C78.4088 90.04 79.3821 89.4933 80.2355 88.4C81.0888 87.3333 81.9021 85.6933 82.6755 83.48L83.5555 81H80.0355L73.1955 62.68H71.5555Z" fill="white"/>
</svg>
